<?xml version="1.0" standalone="no"?>
<!DOCTYPE svg PUBLIC "-//W3C//DTD SVG 20010904//EN"
 "http://www.w3.org/TR/2001/REC-SVG-20010904/DTD/svg10.dtd">
<svg version="1.0" xmlns="http://www.w3.org/2000/svg"
 width="280.000000pt" height="280.000000pt" viewBox="0 0 280.000000 280.000000"
 preserveAspectRatio="xMidYMid meet">
<metadata>
Created by potrace 1.11, written by Peter Selinger 2001-2013
</metadata>
<g transform="translate(0.000000,280.000000) scale(0.100000,-0.100000)"
fill="#000000" stroke="none">
<path d="M1264 2590 c-28 -18 -33 -19 -44 -5 -18 21 -37 19 -51 -7 -18 -34
-30 -38 -59 -23 -28 14 -50 5 -50 -20 0 -6 -6 -19 -13 -29 -11 -15 -17 -16
-40 -5 -34 15 -54 1 -55 -41 -1 -48 -12 -70 -33 -70 -11 0 -29 -5 -40 -10 -15
-9 -17 -15 -9 -30 9 -16 6 -22 -20 -35 -30 -16 -40 -48 -19 -61 8 -5 4 -13
-11 -24 -15 -11 -20 -22 -15 -30 5 -7 9 -98 9 -202 1 -174 0 -189 -17 -194
-41 -13 -57 -62 -57 -172 0 -119 11 -148 64 -177 20 -11 36 -23 36 -27 0 -13
0 -15 20 -83 36 -127 122 -242 236 -317 l64 -42 0 -90 0 -89 -49 6 c-102 12
-323 -65 -431 -150 -180 -142 -280 -345 -280 -570 l0 -93 1000 0 1000 0 0 83
c0 153 -35 273 -116 399 -77 120 -206 228 -334 278 -87 34 -210 59 -262 53
l-48 -6 0 95 0 95 42 19 c24 10 74 51 113 89 78 78 125 162 151 267 14 55 21
67 48 82 54 29 66 61 66 176 0 115 -16 158 -68 179 -26 11 -27 13 -24 79 5 78
-13 171 -34 179 -20 7 -17 20 6 26 17 4 20 14 20 56 0 28 -9 76 -19 107 -14
38 -17 63 -11 78 15 39 -5 58 -55 52 -40 -6 -43 -5 -38 14 9 33 -13 50 -50 39
-18 -5 -33 -9 -35 -9 -1 0 1 19 4 41 l7 42 -55 -7 c-54 -7 -56 -6 -78 24 -18
25 -27 30 -47 25 -14 -3 -30 -2 -36 3 -13 10 -75 21 -144 25 -23 1 -48 8 -55
15 -17 17 -48 15 -84 -8z"/>
</g>
</svg>
